<svg width="281" height="26" viewBox="0 0 281 26" fill="none" xmlns="http://www.w3.org/2000/svg">
<path d="M45.028 14V2.432H46.508V14H45.028ZM49.2553 14V5.728H50.6873V6.928C50.8206 6.69867 51.0046 6.48267 51.2393 6.28C51.4793 6.07733 51.7673 5.91467 52.1033 5.792C52.4446 5.66933 52.8366 5.608 53.2793 5.608C53.8019 5.608 54.2819 5.712 54.7193 5.92C55.1619 6.128 55.5139 6.45333 55.7753 6.896C56.0419 7.33333 56.1753 7.89867 56.1753 8.592V14H54.6953V8.736C54.6953 8.09067 54.5246 7.61333 54.1833 7.304C53.8473 6.98933 53.4099 6.832 52.8713 6.832C52.4979 6.832 52.1486 6.89333 51.8233 7.016C51.4979 7.13333 51.2339 7.31467 51.0313 7.56C50.8286 7.8 50.7273 8.104 50.7273 8.472V14H49.2553ZM61.5056 14.16C60.4283 14.16 59.575 13.792 58.9456 13.056C58.3216 12.32 58.0096 11.2453 58.0096 9.832C58.0096 8.97333 58.135 8.224 58.3856 7.584C58.6363 6.944 59.0123 6.448 59.5136 6.096C60.015 5.744 60.639 5.568 61.3856 5.568C61.7856 5.568 62.1376 5.61867 62.4416 5.72C62.7456 5.82133 63.0096 5.94933 63.2336 6.104C63.4576 6.25867 63.639 6.41867 63.7776 6.584C63.9216 6.74933 64.0283 6.90133 64.0976 7.04V2.112H65.5936V14H64.4576L64.2976 12.304C64.2443 12.464 64.159 12.6507 64.0416 12.864C63.9243 13.072 63.759 13.2773 63.5456 13.48C63.3376 13.6773 63.0656 13.84 62.7296 13.968C62.3936 14.096 61.9856 14.16 61.5056 14.16ZM61.7696 13.024C62.6016 13.024 63.1963 12.7707 63.5536 12.264C63.9163 11.752 64.0976 10.9173 64.0976 9.76C64.0923 9.11467 64.0123 8.56533 63.8576 8.112C63.703 7.65867 63.4576 7.31467 63.1216 7.08C62.791 6.84 62.3483 6.72 61.7936 6.72C61.1163 6.72 60.5643 6.96267 60.1376 7.448C59.711 7.93333 59.4976 8.704 59.4976 9.76C59.4976 10.7947 59.6896 11.5973 60.0736 12.168C60.4576 12.7387 61.023 13.024 61.7696 13.024ZM68.1703 14V5.728H69.6023V14H68.1703ZM68.1303 3.976V2.44H69.6423V3.976H68.1303ZM74.4034 14.16C73.8647 14.16 73.39 14.0667 72.9794 13.88C72.574 13.688 72.254 13.4133 72.0194 13.056C71.79 12.6987 71.6754 12.2667 71.6754 11.76C71.6754 10.8427 71.9954 10.16 72.6354 9.712C73.2754 9.264 74.302 9.024 75.7154 8.992L77.1874 8.952V8.304C77.1874 7.79733 77.0354 7.39733 76.7314 7.104C76.4274 6.80533 75.958 6.656 75.3234 6.656C74.8487 6.66133 74.43 6.77333 74.0674 6.992C73.7047 7.21067 73.4727 7.568 73.3714 8.064H72.0674C72.0994 7.52533 72.2487 7.072 72.5154 6.704C72.7874 6.33067 73.1687 6.048 73.6594 5.856C74.15 5.664 74.7287 5.568 75.3954 5.568C76.1154 5.568 76.7127 5.66933 77.1874 5.872C77.6674 6.07467 78.0247 6.37333 78.2594 6.768C78.4994 7.16267 78.6194 7.648 78.6194 8.224V14H77.3554L77.2434 12.448C76.9287 13.0933 76.5234 13.5413 76.0274 13.792C75.5367 14.0373 74.9954 14.16 74.4034 14.16ZM74.8434 13.096C75.126 13.096 75.4034 13.0453 75.6754 12.944C75.9527 12.8427 76.2034 12.7067 76.4274 12.536C76.6567 12.36 76.8407 12.1653 76.9794 11.952C77.118 11.7333 77.1874 11.5093 77.1874 11.28V9.864L75.9634 9.888C75.3287 9.89867 74.8007 9.96267 74.3794 10.08C73.958 10.1973 73.6407 10.3813 73.4274 10.632C73.214 10.8827 73.1074 11.2107 73.1074 11.616C73.1074 12.08 73.27 12.4427 73.5954 12.704C73.9207 12.9653 74.3367 13.096 74.8434 13.096ZM80.0656 6.208L80.9536 4.224L80.2656 4.184V2.432H82.1136V3.968L80.7536 6.208H80.0656ZM86.1844 14.16C85.6084 14.16 85.0724 14.072 84.5764 13.896C84.0857 13.7147 83.6777 13.4347 83.3524 13.056C83.027 12.672 82.8244 12.184 82.7444 11.592H84.0884C84.1577 11.9173 84.291 12.1893 84.4884 12.408C84.6857 12.6213 84.9284 12.784 85.2164 12.896C85.5097 13.0027 85.8297 13.056 86.1764 13.056C86.7364 13.056 87.187 12.952 87.5284 12.744C87.8697 12.536 88.0404 12.216 88.0404 11.784C88.0404 11.48 87.9497 11.2373 87.7684 11.056C87.5924 10.8693 87.315 10.7333 86.9364 10.648L85.2244 10.224C84.5577 10.064 84.0244 9.81333 83.6244 9.472C83.2297 9.13067 83.0297 8.65333 83.0244 8.04C83.0244 7.55467 83.1417 7.128 83.3764 6.76C83.611 6.392 83.9604 6.10133 84.4244 5.888C84.8937 5.67467 85.4777 5.568 86.1764 5.568C87.0777 5.568 87.803 5.77067 88.3524 6.176C88.9017 6.576 89.1897 7.16533 89.2164 7.944H87.9044C87.851 7.54933 87.675 7.23733 87.3764 7.008C87.0777 6.77333 86.6724 6.656 86.1604 6.656C85.6377 6.656 85.2084 6.76267 84.8724 6.976C84.5417 7.184 84.3764 7.50933 84.3764 7.952C84.3764 8.24533 84.4937 8.47733 84.7284 8.648C84.9684 8.81333 85.315 8.952 85.7684 9.064L87.4324 9.48C87.811 9.58133 88.1257 9.71467 88.3764 9.88C88.627 10.0453 88.8244 10.2293 88.9684 10.432C89.1124 10.6347 89.2137 10.848 89.2724 11.072C89.3364 11.2907 89.3684 11.5013 89.3684 11.704C89.3684 12.2107 89.243 12.648 88.9924 13.016C88.7417 13.3787 88.379 13.6613 87.9044 13.864C87.4297 14.0613 86.8564 14.16 86.1844 14.16ZM95.4343 14V2.432H99.1543C100.562 2.432 101.626 2.69067 102.346 3.208C103.072 3.72533 103.434 4.472 103.434 5.448C103.434 6.06133 103.274 6.58667 102.954 7.024C102.64 7.46133 102.085 7.82133 101.29 8.104C101.744 8.2 102.125 8.33867 102.434 8.52C102.749 8.70133 103 8.91467 103.186 9.16C103.378 9.4 103.514 9.66667 103.594 9.96C103.68 10.2533 103.722 10.5627 103.722 10.888C103.722 11.9333 103.349 12.7147 102.602 13.232C101.861 13.744 100.752 14 99.2743 14H95.4343ZM96.9143 12.768H99.2583C100.224 12.768 100.957 12.6107 101.458 12.296C101.965 11.976 102.218 11.4853 102.218 10.824C102.218 10.3387 102.093 9.94667 101.842 9.648C101.597 9.344 101.264 9.12267 100.842 8.984C100.421 8.84533 99.9516 8.776 99.4343 8.776H96.9143V12.768ZM96.9143 7.52H99.4343C99.7383 7.52 100.04 7.49067 100.338 7.432C100.637 7.37333 100.912 7.272 101.162 7.128C101.413 6.984 101.616 6.792 101.77 6.552C101.925 6.30667 102.002 6 102.002 5.632C102.002 4.96 101.744 4.464 101.226 4.144C100.714 3.81867 100.048 3.656 99.2263 3.656H96.9143V7.52ZM109.423 14.16C108.655 14.16 107.978 13.992 107.391 13.656C106.804 13.32 106.346 12.8373 106.015 12.208C105.684 11.5787 105.519 10.824 105.519 9.944C105.519 9.07467 105.668 8.312 105.967 7.656C106.266 7 106.698 6.488 107.263 6.12C107.834 5.752 108.519 5.568 109.319 5.568C110.098 5.568 110.756 5.736 111.295 6.072C111.834 6.408 112.242 6.88267 112.519 7.496C112.802 8.104 112.943 8.82667 112.943 9.664V10.208H107.015C107.015 10.7307 107.1 11.2053 107.271 11.632C107.447 12.0533 107.711 12.3893 108.063 12.64C108.415 12.8907 108.86 13.016 109.399 13.016C109.927 13.016 110.38 12.8933 110.759 12.648C111.143 12.4027 111.388 12.048 111.495 11.584H112.887C112.791 12.144 112.567 12.616 112.215 13C111.868 13.384 111.45 13.6747 110.959 13.872C110.474 14.064 109.962 14.16 109.423 14.16ZM107.023 9.208H111.519C111.519 8.73333 111.439 8.30667 111.279 7.928C111.119 7.544 110.874 7.24267 110.543 7.024C110.218 6.8 109.807 6.688 109.311 6.688C108.794 6.688 108.364 6.81333 108.023 7.064C107.682 7.30933 107.428 7.62667 107.263 8.016C107.098 8.4 107.018 8.79733 107.023 9.208ZM117.919 14.16C117.343 14.16 116.807 14.072 116.311 13.896C115.82 13.7147 115.412 13.4347 115.087 13.056C114.761 12.672 114.559 12.184 114.479 11.592H115.823C115.892 11.9173 116.025 12.1893 116.223 12.408C116.42 12.6213 116.663 12.784 116.951 12.896C117.244 13.0027 117.564 13.056 117.911 13.056C118.471 13.056 118.921 12.952 119.263 12.744C119.604 12.536 119.775 12.216 119.775 11.784C119.775 11.48 119.684 11.2373 119.503 11.056C119.327 10.8693 119.049 10.7333 118.671 10.648L116.959 10.224C116.292 10.064 115.759 9.81333 115.359 9.472C114.964 9.13067 114.764 8.65333 114.759 8.04C114.759 7.55467 114.876 7.128 115.111 6.76C115.345 6.392 115.695 6.10133 116.159 5.888C116.628 5.67467 117.212 5.568 117.911 5.568C118.812 5.568 119.537 5.77067 120.087 6.176C120.636 6.576 120.924 7.16533 120.951 7.944H119.639C119.585 7.54933 119.409 7.23733 119.111 7.008C118.812 6.77333 118.407 6.656 117.895 6.656C117.372 6.656 116.943 6.76267 116.607 6.976C116.276 7.184 116.111 7.50933 116.111 7.952C116.111 8.24533 116.228 8.47733 116.463 8.648C116.703 8.81333 117.049 8.952 117.503 9.064L119.167 9.48C119.545 9.58133 119.86 9.71467 120.111 9.88C120.361 10.0453 120.559 10.2293 120.703 10.432C120.847 10.6347 120.948 10.848 121.007 11.072C121.071 11.2907 121.103 11.5013 121.103 11.704C121.103 12.2107 120.977 12.648 120.727 13.016C120.476 13.3787 120.113 13.6613 119.639 13.864C119.164 14.0613 118.591 14.16 117.919 14.16ZM125.897 14.04C125.326 14.04 124.883 13.9627 124.569 13.808C124.254 13.6533 124.033 13.424 123.905 13.12C123.782 12.816 123.721 12.4427 123.721 12V6.808H122.377V5.728H123.761L124.121 3.32H125.209V5.72H127.073V6.808H125.209V11.952C125.209 12.2453 125.238 12.4613 125.297 12.6C125.361 12.7333 125.465 12.8187 125.609 12.856C125.753 12.8933 125.955 12.912 126.217 12.912H127.121V13.904C127.019 13.9413 126.865 13.9733 126.657 14C126.454 14.0267 126.201 14.04 125.897 14.04ZM133.278 14V2.432H140.574L140.566 3.736H134.766V7.512H139.99V8.808H134.758V12.664L140.726 12.68V14H133.278ZM143.294 14V2.432H147.774C148.606 2.432 149.302 2.56 149.862 2.816C150.422 3.06667 150.84 3.42933 151.118 3.904C151.395 4.37333 151.534 4.936 151.534 5.592C151.534 6.22133 151.422 6.744 151.198 7.16C150.979 7.576 150.699 7.912 150.358 8.168C150.016 8.41867 149.662 8.61333 149.294 8.752L151.566 14H149.998L147.886 9.016H144.774V14H143.294ZM144.774 7.792H147.294C148.163 7.792 148.835 7.616 149.31 7.264C149.784 6.90667 150.022 6.37867 150.022 5.68C150.022 4.99733 149.808 4.488 149.382 4.152C148.96 3.81067 148.382 3.64 147.646 3.64H144.774V7.792ZM154.122 14V2.432H158.034C158.86 2.432 159.596 2.57067 160.242 2.848C160.887 3.12533 161.394 3.536 161.762 4.08C162.135 4.624 162.322 5.29333 162.322 6.088C162.322 6.856 162.148 7.512 161.802 8.056C161.46 8.6 160.983 9.01333 160.37 9.296C159.756 9.57867 159.044 9.72 158.234 9.72H155.642V14H154.122ZM155.634 8.472H158.202C158.996 8.472 159.642 8.25067 160.138 7.808C160.634 7.36533 160.882 6.76267 160.882 6C160.882 5.232 160.626 4.65067 160.114 4.256C159.602 3.86133 158.94 3.664 158.13 3.664H155.634V8.472ZM172.12 14.16C171.555 14.16 171.019 14.0933 170.512 13.96C170.005 13.8213 169.544 13.616 169.128 13.344C168.717 13.072 168.376 12.736 168.104 12.336C167.837 11.9307 167.669 11.4613 167.6 10.928H169.152C169.248 11.3653 169.437 11.7333 169.72 12.032C170.008 12.3307 170.363 12.5547 170.784 12.704C171.211 12.8533 171.677 12.928 172.184 12.928C172.675 12.928 173.125 12.8507 173.536 12.696C173.952 12.5413 174.285 12.3173 174.536 12.024C174.787 11.7253 174.912 11.368 174.912 10.952C174.912 10.4933 174.763 10.1253 174.464 9.848C174.165 9.56533 173.704 9.33867 173.08 9.168L170.696 8.552C170.157 8.41867 169.68 8.232 169.264 7.992C168.853 7.74667 168.531 7.42667 168.296 7.032C168.061 6.632 167.944 6.136 167.944 5.544C167.944 4.888 168.125 4.31733 168.488 3.832C168.851 3.34133 169.341 2.96267 169.96 2.696C170.584 2.424 171.288 2.288 172.072 2.288C172.979 2.288 173.741 2.44533 174.36 2.76C174.984 3.07467 175.456 3.488 175.776 4C176.096 4.512 176.256 5.05867 176.256 5.64H174.736C174.688 5.112 174.533 4.696 174.272 4.392C174.011 4.08267 173.685 3.86133 173.296 3.728C172.907 3.58933 172.483 3.52 172.024 3.52C171.197 3.52 170.571 3.70933 170.144 4.088C169.723 4.46133 169.512 4.90667 169.512 5.424C169.512 5.89867 169.664 6.272 169.968 6.544C170.272 6.816 170.72 7.02667 171.312 7.176L173.632 7.776C174.32 7.936 174.867 8.168 175.272 8.472C175.683 8.776 175.976 9.13067 176.152 9.536C176.333 9.936 176.424 10.3707 176.424 10.84C176.424 11.48 176.245 12.0507 175.888 12.552C175.531 13.0533 175.029 13.448 174.384 13.736C173.744 14.0187 172.989 14.16 172.12 14.16ZM181.927 14.16C181.164 14.16 180.497 13.9973 179.927 13.672C179.361 13.3413 178.921 12.8587 178.607 12.224C178.292 11.5893 178.135 10.8133 178.135 9.896C178.135 9.032 178.281 8.27467 178.575 7.624C178.868 6.97333 179.297 6.46933 179.863 6.112C180.428 5.74933 181.119 5.568 181.935 5.568C182.697 5.568 183.359 5.736 183.919 6.072C184.479 6.40267 184.913 6.89067 185.223 7.536C185.537 8.18133 185.695 8.968 185.695 9.896C185.695 10.7387 185.551 11.48 185.263 12.12C184.975 12.76 184.551 13.2613 183.991 13.624C183.436 13.9813 182.748 14.16 181.927 14.16ZM181.935 12.992C182.425 12.992 182.841 12.8667 183.183 12.616C183.524 12.3653 183.783 12.0053 183.959 11.536C184.14 11.0667 184.231 10.5093 184.231 9.864C184.231 9.272 184.151 8.74133 183.991 8.272C183.836 7.79733 183.591 7.42133 183.255 7.144C182.919 6.86667 182.479 6.728 181.935 6.728C181.433 6.728 181.009 6.85333 180.663 7.104C180.316 7.34933 180.052 7.70667 179.871 8.176C179.695 8.64533 179.607 9.208 179.607 9.864C179.607 10.4453 179.684 10.9733 179.839 11.448C179.999 11.9227 180.249 12.2987 180.591 12.576C180.937 12.8533 181.385 12.992 181.935 12.992ZM189.75 14.104C189.302 14.104 188.939 14.0427 188.662 13.92C188.39 13.7973 188.179 13.632 188.03 13.424C187.886 13.216 187.787 12.9787 187.734 12.712C187.686 12.44 187.662 12.16 187.662 11.872V2.112H189.118V11.728C189.118 12.144 189.198 12.456 189.358 12.664C189.523 12.872 189.752 12.9867 190.046 13.008L190.494 13.016V13.976C190.371 14.0133 190.243 14.0427 190.11 14.064C189.976 14.0907 189.856 14.104 189.75 14.104ZM195.28 14.16C194.848 14.1547 194.44 14.0933 194.056 13.976C193.677 13.8533 193.341 13.6747 193.048 13.44C192.754 13.2053 192.522 12.9147 192.352 12.568C192.186 12.216 192.104 11.808 192.104 11.344V5.728H193.584V11.192C193.584 11.7307 193.749 12.168 194.08 12.504C194.416 12.84 194.92 13.008 195.592 13.008C196.2 13.008 196.688 12.8507 197.056 12.536C197.429 12.216 197.616 11.7413 197.616 11.112V5.728H199.088V14H197.912L197.76 12.416C197.658 12.832 197.485 13.168 197.24 13.424C197 13.68 196.709 13.8693 196.368 13.992C196.032 14.1093 195.669 14.1653 195.28 14.16ZM204.553 14.04C203.982 14.04 203.54 13.9627 203.225 13.808C202.91 13.6533 202.689 13.424 202.561 13.12C202.438 12.816 202.377 12.4427 202.377 12V6.808H201.033V5.728H202.417L202.777 3.32H203.865V5.72H205.729V6.808H203.865V11.952C203.865 12.2453 203.894 12.4613 203.953 12.6C204.017 12.7333 204.121 12.8187 204.265 12.856C204.409 12.8933 204.612 12.912 204.873 12.912H205.777V13.904C205.676 13.9413 205.521 13.9733 205.313 14C205.11 14.0267 204.857 14.04 204.553 14.04ZM207.78 14V5.728H209.212V14H207.78ZM207.74 3.976V2.44H209.252V3.976H207.74ZM215.005 14.16C214.242 14.16 213.575 13.9973 213.005 13.672C212.439 13.3413 211.999 12.8587 211.685 12.224C211.37 11.5893 211.213 10.8133 211.213 9.896C211.213 9.032 211.359 8.27467 211.653 7.624C211.946 6.97333 212.375 6.46933 212.941 6.112C213.506 5.74933 214.197 5.568 215.013 5.568C215.775 5.568 216.437 5.736 216.997 6.072C217.557 6.40267 217.991 6.89067 218.301 7.536C218.615 8.18133 218.773 8.968 218.773 9.896C218.773 10.7387 218.629 11.48 218.341 12.12C218.053 12.76 217.629 13.2613 217.069 13.624C216.514 13.9813 215.826 14.16 215.005 14.16ZM215.013 12.992C215.503 12.992 215.919 12.8667 216.261 12.616C216.602 12.3653 216.861 12.0053 217.037 11.536C217.218 11.0667 217.309 10.5093 217.309 9.864C217.309 9.272 217.229 8.74133 217.069 8.272C216.914 7.79733 216.669 7.42133 216.333 7.144C215.997 6.86667 215.557 6.728 215.013 6.728C214.511 6.728 214.087 6.85333 213.741 7.104C213.394 7.34933 213.13 7.70667 212.949 8.176C212.773 8.64533 212.685 9.208 212.685 9.864C212.685 10.4453 212.762 10.9733 212.917 11.448C213.077 11.9227 213.327 12.2987 213.669 12.576C214.015 12.8533 214.463 12.992 215.013 12.992ZM220.74 14V5.728H222.172V6.928C222.305 6.69867 222.489 6.48267 222.724 6.28C222.964 6.07733 223.252 5.91467 223.588 5.792C223.929 5.66933 224.321 5.608 224.764 5.608C225.286 5.608 225.766 5.712 226.204 5.92C226.646 6.128 226.998 6.45333 227.26 6.896C227.526 7.33333 227.66 7.89867 227.66 8.592V14H226.18V8.736C226.18 8.09067 226.009 7.61333 225.668 7.304C225.332 6.98933 224.894 6.832 224.356 6.832C223.982 6.832 223.633 6.89333 223.308 7.016C222.982 7.13333 222.718 7.31467 222.516 7.56C222.313 7.8 222.212 8.104 222.212 8.472V14H220.74ZM232.872 14.16C232.296 14.16 231.76 14.072 231.264 13.896C230.773 13.7147 230.365 13.4347 230.04 13.056C229.715 12.672 229.512 12.184 229.432 11.592H230.776C230.845 11.9173 230.979 12.1893 231.176 12.408C231.373 12.6213 231.616 12.784 231.904 12.896C232.197 13.0027 232.517 13.056 232.864 13.056C233.424 13.056 233.875 12.952 234.216 12.744C234.557 12.536 234.728 12.216 234.728 11.784C234.728 11.48 234.637 11.2373 234.456 11.056C234.28 10.8693 234.003 10.7333 233.624 10.648L231.912 10.224C231.245 10.064 230.712 9.81333 230.312 9.472C229.917 9.13067 229.717 8.65333 229.712 8.04C229.712 7.55467 229.829 7.128 230.064 6.76C230.299 6.392 230.648 6.10133 231.112 5.888C231.581 5.67467 232.165 5.568 232.864 5.568C233.765 5.568 234.491 5.77067 235.04 6.176C235.589 6.576 235.877 7.16533 235.904 7.944H234.592C234.539 7.54933 234.363 7.23733 234.064 7.008C233.765 6.77333 233.36 6.656 232.848 6.656C232.325 6.656 231.896 6.76267 231.56 6.976C231.229 7.184 231.064 7.50933 231.064 7.952C231.064 8.24533 231.181 8.47733 231.416 8.648C231.656 8.81333 232.003 8.952 232.456 9.064L234.12 9.48C234.499 9.58133 234.813 9.71467 235.064 9.88C235.315 10.0453 235.512 10.2293 235.656 10.432C235.8 10.6347 235.901 10.848 235.96 11.072C236.024 11.2907 236.056 11.5013 236.056 11.704C236.056 12.2107 235.931 12.648 235.68 13.016C235.429 13.3787 235.067 13.6613 234.592 13.864C234.117 14.0613 233.544 14.16 232.872 14.16Z" fill="white"/>
<path d="M18.3717 22.0203C19.7671 21.9682 21.5961 22.0239 22.9862 22.1004C23.4218 22.1241 23.2012 22.2302 23.5019 22.2513C24.0901 22.2925 24.6381 22.2405 25.2193 22.2896C25.4119 22.3064 25.1721 22.4743 25.3741 22.4881C26.4809 22.5623 27.528 22.5196 28.6492 22.5553C34.172 22.7314 39.6007 22.7944 45.1911 22.8709C47.0344 22.896 49.2751 23.0484 51.179 22.9818C51.4013 22.9738 51.2688 22.8264 51.311 22.8143C51.9743 22.6283 51.7538 22.9259 52.1868 22.9654C53.9056 23.1215 55.8168 23.1351 57.4709 23.0782C58.1746 23.0536 57.469 22.7608 58.1776 22.9251C58.2268 22.9362 58.0482 23.0928 58.2412 23.1094C58.6789 23.147 59.5092 23.119 59.8484 23.1314C60.5021 23.1561 60.6102 23.1545 61.2285 23.1563C62.0738 23.1601 63.0791 23.2379 63.986 23.2025C64.1796 23.1944 63.9233 23.034 64.232 23.0067C64.541 22.9794 65.3584 22.993 65.634 23.0308C65.9096 23.0687 65.7923 23.1948 65.8411 23.2237C66.2424 23.4677 67.1879 23.1298 67.3096 23.1214C69.5278 22.979 71.43 23.1715 73.5121 23.171C75.0929 23.1701 76.783 23.1066 78.2871 23.1153C80.079 23.1263 81.5977 23.2133 83.3385 23.1983C83.5222 23.1969 83.3069 23.0083 83.5313 23.0062C85.9152 22.9842 88.2826 23.0048 90.6562 23.1322C90.8942 23.1451 90.5875 23.3107 90.8253 23.3336C92.2814 23.4697 94.5853 23.7967 95.4501 23.0755C96.4365 23.1037 97.6339 23.1328 98.5163 23.2781C99.0852 23.3717 98.5326 23.5522 99.2316 23.4752C99.3892 23.458 99.1842 23.3 99.4206 23.2862C100.416 23.2284 101.503 23.2797 102.488 23.1981C102.688 23.1811 102.633 23.0395 102.69 23.014C103.167 22.8075 103.961 23.1489 104.134 23.1737C105.452 23.3586 106.414 23.2858 107.642 23.2904C107.927 23.2915 107.59 23.1013 107.864 23.0955C109.286 23.0683 110.758 23.0846 112.151 23.169C112.46 23.1882 112.176 23.3503 112.323 23.3677C112.976 23.4428 113.121 23.1368 113.746 23.203C113.878 23.2165 113.804 23.3552 113.828 23.3704C114.205 23.6096 114.532 23.2707 114.629 23.2633C115.854 23.161 116.637 23.5148 117.821 23.4647C117.963 23.4583 117.644 23.2828 118.042 23.2757C120.694 23.2273 123.499 23.2755 126.124 23.4158C126.532 23.4374 126.241 23.5693 126.267 23.5855C126.685 23.8395 126.956 23.4992 127.089 23.4864C128.139 23.3942 129.12 23.6795 129.833 23.2742C134.28 23.4149 138.706 23.1873 143.116 23.5504C143.172 23.5546 143.072 23.7221 143.184 23.7298C144.53 23.8239 144.272 23.5635 145.163 23.2449C145.388 23.165 146.071 23.5495 146.131 23.5777C146.351 23.6816 146.123 23.9309 146.197 23.951C146.807 24.109 146.707 23.2845 147.53 23.2843C147.556 23.2856 147.448 23.4374 147.517 23.4525C147.731 23.4998 147.944 23.4395 148.154 23.4918C148.635 23.6126 148.806 24.0133 149.54 23.7801C149.633 23.7498 149.491 23.2822 150.226 23.3043C150.519 23.3135 151.815 23.3055 152.179 23.3358C152.542 23.366 152.292 23.5167 152.318 23.5233C153.296 23.7225 152.926 23.8051 153.415 24.1002C153.905 24.3941 153.77 23.6931 153.969 23.6148C154.169 23.5368 154.886 23.7012 155.063 23.7584C155.239 23.8156 155.019 23.9113 155.176 23.9437C156.214 24.1551 155.631 23.5957 155.973 23.4844C156.78 23.221 157.408 23.7409 158.147 23.7918C158.347 23.8056 158.183 23.6872 158.361 23.6761C159.066 23.6338 159.49 23.796 160.292 23.6473C160.423 23.623 161.071 23.3105 161.49 23.5399C161.55 23.5729 161.381 23.7025 161.681 23.7315C162.13 23.7751 162.938 23.8034 163.42 23.7601C163.776 23.728 163.368 23.5146 163.816 23.5809C164.016 23.6105 163.646 23.7354 164.021 23.7806C164.393 23.8258 165.345 23.8203 165.707 23.816C166.068 23.8116 165.87 23.6497 165.899 23.6387C166.076 23.5763 166.77 23.4982 166.831 23.4984C169.924 23.4786 172.775 23.7515 175.786 23.6612C176.022 23.6543 175.865 23.4836 175.901 23.4808C176.709 23.4092 176.072 23.8632 176.637 24.0152C176.555 23.6687 176.889 23.7314 177.458 23.6934C177.733 23.6748 177.583 23.5407 177.608 23.5269C178.016 23.3231 178.299 23.5864 178.372 23.6402C178.642 23.8383 178.935 23.6042 179.119 23.7366C179.302 23.8681 178.88 24.0629 179.426 24.0604C179.58 23.9363 179.174 23.6122 179.589 23.5596C181.154 23.3609 184.076 23.6153 185.335 23.6417C186.591 23.6681 186.996 23.6452 187.728 23.69C189.05 23.7711 188.566 23.5306 189.387 23.4205C190.21 23.3104 189.81 23.9022 189.928 24.0294C190.044 24.1565 190.171 24.0256 190.316 24.0955C190.46 24.1654 190.148 24.2519 190.487 24.2781C190.826 24.3044 191.752 24.0781 191.872 23.9451C192.127 23.6633 191.709 23.3676 192.606 23.4715C192.657 23.4777 192.49 23.6333 192.687 23.649C194.256 23.7688 195.886 23.7762 197.453 23.8822C197.668 23.897 197.476 24.0701 197.601 24.0806C198.907 24.1914 198.44 23.8995 199.156 23.5753C198.995 24.0067 199.391 24.2707 200.382 24.2733C200.978 24.2749 200.876 24.0865 201.261 23.9537C201.377 23.9136 201.798 24.043 201.875 23.9544C202.126 23.6647 201.729 23.3404 202.751 23.4696C202.796 23.4757 202.653 23.6343 202.808 23.6439C203.81 23.7067 203.929 23.4037 205.012 23.367C205.86 23.3382 207.369 23.523 208.336 23.553C208.315 24.0381 209.228 23.9271 209.598 23.5926C210.225 23.6063 210.902 23.5874 211.508 23.6336C211.717 23.6494 211.58 23.7898 211.606 23.805C212.009 24.0431 212.282 23.7177 212.417 23.7049C213.884 23.5809 215.079 23.8275 216.479 23.5865C216.528 23.5778 216.609 23.2409 216.983 23.4869C217.007 23.5038 216.545 23.6572 217.203 23.669C217.862 23.6809 219.104 23.8615 220.018 23.7054C220.239 23.6678 220.799 23.3943 221.248 23.608C221.308 23.637 221.242 23.7336 221.329 23.7874C221.608 23.9588 221.76 23.6182 222.089 23.9075C222.417 24.1969 223.099 24.4136 224.022 24.2139C224.051 24.2081 224.269 23.9382 224.559 23.9425C225.022 23.9495 225.679 24.0057 226.163 24.004C226.394 24.003 226.246 23.8354 226.286 23.8323C227.842 23.7384 228.949 23.8879 230.616 23.9527C230.922 23.9649 231.8 23.7363 232.392 23.9171C233.041 24.1149 232.374 24.9378 233.867 24.7418C234.469 24.6633 235.231 23.6193 236.314 24.1602C238.413 24.0262 240.354 24.303 242.458 24.1116C242.553 24.1032 242.852 23.8118 243.075 23.8157C243.405 23.8222 243.586 23.9584 243.822 23.9674C244.811 24.0084 245.715 23.8919 246.668 23.91C247.03 23.9166 246.903 24.0574 247.335 24.0653C247.766 24.073 248.054 23.8876 248.638 23.9771C249.079 24.0454 249.521 24.4244 250.107 24.4686C250.129 24.0947 250.531 24.1024 251.246 24.0037C251.384 23.9846 251.236 23.8545 251.302 23.8387C251.566 23.7716 251.811 23.8795 252.062 23.8065C252.124 23.7889 252.126 23.6613 252.176 23.6397C252.601 23.4517 253.301 23.7389 253.422 23.7889C253.882 23.9788 254.098 23.8127 254.451 23.8875C254.804 23.9623 254.276 24.0558 254.689 24.1011C255.543 24.195 256.641 24.1744 257.509 24.1802C257.855 24.1818 257.619 24.0114 257.668 24.0076C258.384 23.9644 259.108 24.1457 259.505 23.8062C260.002 24.684 259.937 23.7211 260.961 23.8968C261.041 23.911 261.144 24.3261 260.834 24.387C260.525 24.4479 260.056 24.3182 259.626 24.4132C259.524 24.4354 258.942 24.8244 258.862 24.848C258.24 25.0321 258.152 24.4118 258.119 24.3778C257.745 24.0101 257.033 24.4291 256.846 24.4581C255.988 24.5907 255.26 24.5035 254.542 24.5982C254.073 24.6594 254.027 25.0657 253.659 25.0533C252.435 25.0122 252.007 24.4454 250.853 24.9368C250.606 25.0417 250.852 25.4857 249.965 25.1365C249.909 25.1145 249.251 24.7951 248.871 24.9971C248.823 25.0226 248.825 25.152 248.762 25.1629C248.339 25.2332 248.058 25.1301 247.598 25.1795C247.138 25.2289 246.585 25.3025 246.06 25.2586C245.744 25.2324 245.338 24.9912 245.186 24.9322C244.759 24.7621 244.3 25.041 244.035 24.835C243.768 24.6281 244.29 24.3137 243.59 24.18C243.564 24.5162 243.504 24.8614 243.462 25.1995C241.927 25.1877 240.416 25.079 238.875 25.0938C238.684 25.096 238.88 25.2768 238.675 25.2838C237.811 25.3125 237.057 25.1836 236.161 25.2349C235.467 25.2753 234.707 25.4667 233.982 25.515C233.539 25.1302 232.463 25.2608 231.681 25.2257C231.407 25.2135 231.426 25.1107 231.231 25.0772C230.496 24.9532 230.841 25.2932 230.639 25.3467C229.775 25.5751 229.701 24.8055 228.682 24.8245C228.629 24.8253 227.969 25.2355 227.878 25.2611C227.301 25.4276 227.782 25.1183 227.421 25.088C226.761 25.0326 226.303 24.9346 225.529 25.0548C225.303 25.0903 224.762 25.346 224.324 25.1483C224.266 25.1224 224.298 24.9868 224.251 24.9788C223.411 24.8465 223.389 25.2725 222.909 25.4168C222.429 25.5611 221.688 25.267 221.537 25.1822C221.142 24.9629 221.839 25.0885 221.861 25.067C222.112 24.8109 221.571 24.855 221.158 24.8333C221.098 24.4156 220.52 24.4406 220.729 24.8126C220.753 24.8532 221.075 24.8142 221.158 24.8333C220.795 25.2432 220.16 25.2957 219.458 24.9127C219.13 24.7331 219.44 24.5238 218.443 24.6004C217.99 24.635 218.165 24.9226 217.766 25.001C216.853 25.18 215.667 24.9116 214.726 24.9539C214.385 24.9693 214.717 25.1267 214.484 25.1426C213.865 25.1854 213.318 25.0672 212.696 25.1278C212.64 25.1334 212.778 25.2983 212.584 25.3004C211.118 25.3195 209.841 25.2139 208.31 25.211C207.57 25.2097 206.247 25.3006 205.481 25.2823C204.153 25.2516 202.519 25.0119 201.384 25.0701C200.644 25.1074 200.807 25.2723 200.49 25.3846C199.878 25.6023 198.795 25.2123 198.649 25.1519C198.644 25.1499 199.281 25.1111 198.941 25.0264C198.744 24.8501 198.656 25.1512 198.649 25.1519C198.553 25.1129 197.281 25.0755 197.028 25.107C196.891 25.1242 196.968 25.2804 196.896 25.2864C195.195 25.4262 193.491 25.4659 191.766 25.3929C191.736 25.3897 191.781 25.215 191.71 25.2098C190.711 25.1321 190.072 25.3458 189.248 25.4727C188.424 25.5996 187.771 25.5571 187.284 25.2571C186.662 25.2949 185.771 25.1623 185.258 25.0819C184.745 25.0014 184.673 25.3415 184.628 25.3482C183.22 25.5634 182.406 25.3687 180.945 25.3384C180.251 25.3235 178.873 25.3728 178.121 25.41C177.527 25.4399 177.169 25.3602 176.622 25.4112C176.547 25.418 176.622 25.5694 176.6 25.5753C175.989 25.7564 176.282 25.3862 176.156 25.3201C175.699 25.0797 175.416 24.9517 174.633 25.0648C174.453 25.0907 173.927 25.6237 173.598 25.6548C173.17 25.6944 173.332 25.5033 172.884 25.5496C172.846 25.5534 172.853 25.6713 172.577 25.6661C171.294 25.6435 169.895 25.5749 168.561 25.5867C168.379 25.5879 168.612 25.7748 168.349 25.7796C167.114 25.8018 165.76 25.7948 164.557 25.7073C164.261 25.6852 164.447 25.5543 164.383 25.5154C163.988 25.2803 163.428 25.622 163.336 25.6285C161.133 25.7927 159.447 25.4835 157.202 25.6307C157.079 25.6393 156.139 26.0056 155.719 25.6915C155.69 25.6706 155.275 25.3492 154.908 25.5689C154.885 25.5827 155.144 25.7481 154.692 25.7313C154.24 25.7144 153.514 25.8249 152.893 25.6431C152.697 25.5859 152.232 25.2652 151.646 25.5208C151.608 25.5387 150.703 26.1166 150.38 25.7178C150.327 25.6522 150.382 25.2303 149.683 25.4466C149.549 25.4885 149.791 25.5827 149.439 25.6414C148.9 25.732 148.185 25.619 147.522 25.8069C147.406 25.8402 146.913 26.1266 146.519 25.9092C146.457 25.8752 146.574 25.7343 146.366 25.7186C145.374 25.643 144.335 25.7372 143.328 25.6397C142.971 25.6055 143.154 25.3777 142.782 25.3167C142.41 25.2557 141.661 25.197 141.271 25.3011C140.882 25.4052 141.307 25.7681 140.724 25.7972C138.189 25.9233 135.678 25.7104 133.147 25.6793C132.772 25.6746 133.083 25.8045 132.53 25.8069C130.49 25.8166 126.969 25.9384 125.199 25.6624C123.781 25.4414 125.565 25.2731 124.482 25.1832C123.959 25.1403 123.393 25.5622 123.267 25.5755C122.034 25.7104 121.177 25.5235 120.067 25.5809C119.838 25.5928 120.062 25.7638 119.867 25.772C119.201 25.8017 118.501 25.7254 117.864 25.7393C117.578 25.746 117.631 25.8766 117.368 25.8665C116.739 25.8439 116.183 25.789 115.57 25.6666C115.514 25.6554 115.891 25.4929 115.426 25.4869C114.673 25.4776 113.738 25.3568 112.872 25.4815C112.615 25.519 112.604 25.8176 112.052 25.6114C111.936 25.5683 112.084 25.2099 111.44 25.5196C111.332 25.5711 110.251 25.9888 109.72 25.7195C109.58 25.6487 109.223 25.3553 108.913 25.4014C108.872 25.4088 109.04 25.5691 108.783 25.5848C107.881 25.6371 106.934 25.62 106.007 25.6702C105.759 25.684 106.128 25.8499 105.759 25.8651C104.744 25.907 103.477 25.8647 102.484 25.8128C102.118 25.7933 102.371 25.6559 102.344 25.6409C101.916 25.3976 101.663 25.726 101.521 25.7452C100.637 25.8598 99.9637 25.7056 99.1489 25.7464C98.9241 25.7573 99.0835 25.9138 99.0387 25.9278C98.5746 26.0642 98.9203 25.783 98.6265 25.752C97.8034 25.6642 96.8857 25.6768 96.0533 25.6968C95.7475 25.7044 96.0912 25.886 95.8168 25.8907C94.1927 25.922 92.5043 25.9046 90.9193 25.8045C90.6209 25.7853 90.8086 25.6455 90.7464 25.6136C90.3177 25.3902 89.6894 25.6949 89.5449 25.7239C88.8875 25.8565 88.6322 25.7328 88.0517 25.7559C85.2159 25.8708 81.7144 25.7889 79.0375 25.7383C75.5493 25.6732 72.8425 25.5402 69.5161 25.5748C69.3047 25.5768 69.5178 25.7628 69.3356 25.7669C66.9827 25.8117 64.6662 25.7391 62.3085 25.7928C62.1151 25.7969 62.3939 25.9732 62.0834 25.9857C61.4465 26.0125 60.6396 26.0029 59.9956 25.9466C59.6815 25.9195 60.1028 25.7682 59.7867 25.744C59.0504 25.6872 58.2613 25.6747 57.5051 25.7029C57.1833 25.7154 57.6688 25.8957 57.2505 25.8978C54.4012 25.9157 51.6029 25.9467 48.7236 25.7132C48.5262 25.6972 48.353 25.3307 47.9333 25.4009C47.9017 25.5027 47.9034 25.6223 47.8896 25.731C43.7418 25.7896 39.6363 25.6625 35.4768 25.6429C35.3015 25.6421 35.6046 25.8363 35.265 25.8358C33.2999 25.8329 31.3917 25.8867 29.3816 25.6937C29.1821 25.6748 29.2845 25.3332 28.6967 25.3848C28.5931 25.3943 27.7079 25.4398 27.479 25.514C27.4479 25.5252 27.6094 25.6846 27.3242 25.6893C25.6666 25.7135 23.9295 25.6771 22.2747 25.5797C22.0077 25.5636 22.2921 25.3938 22.1018 25.3809C20.7526 25.2908 19.2849 25.4199 17.9956 25.2657C17.1326 25.1619 17.4521 24.8683 16.9935 24.5794C16.9286 24.5386 16.3942 24.5322 16.3666 24.3641C16.2956 23.9414 16.5545 23.4785 16.4483 23.0279C16.4258 22.9309 15.7101 23.0354 16.1339 22.8009C16.1635 22.7852 16.6824 22.7073 16.8102 22.6278C16.8991 22.5728 16.7388 22.4018 16.9203 22.3314C17.1019 22.261 17.3014 22.4043 17.6024 22.3216C17.9032 22.2379 17.7709 22.0434 18.3717 22.0203ZM182.948 24.7222C182.473 24.5589 182.402 25.1571 182.916 25.014C182.941 25.0064 182.972 24.7302 182.948 24.7222ZM240.425 24.6278C239.804 24.3639 239.379 24.7519 239.817 24.9556C240.255 25.1592 240.614 24.7077 240.425 24.6278ZM246.865 24.4351C246.139 24.2271 246.025 25.0754 246.802 24.9039C246.847 24.8942 246.907 24.4472 246.865 24.4351ZM19.1202 24.4971C19.1137 24.4892 18.7295 24.4815 18.7203 24.4893C18.5158 24.6793 19.2839 24.6947 19.1202 24.4971ZM253.255 24.2254C253.029 24.1107 252.376 24.2431 252.658 24.3858C252.885 24.5006 253.538 24.3681 253.255 24.2254ZM158.167 24.0838C158.159 24.0749 157.884 24.0669 157.889 24.1173C157.908 24.2795 158.291 24.2337 158.167 24.0838ZM264.117 24.2156C262.512 24.1837 261.539 23.483 263.287 23.5621C263.603 23.5764 262.605 23.7855 263.008 23.8487C263.745 23.9638 264.234 23.5238 264.986 23.7596C265.122 23.8027 264.209 24.219 264.114 24.2166C264.115 24.2163 264.116 24.216 264.117 24.2156ZM182.674 24.0037C182.665 23.9958 182.283 23.9883 182.274 23.9962C182.068 24.1861 182.836 24.2013 182.674 24.0037ZM142.096 23.7139C142.075 23.6971 141.19 23.6813 141.161 23.6968C140.7 24.0074 142.489 24.0402 142.096 23.7139ZM208.351 23.566C208.767 23.3749 209.264 23.3524 209.596 23.5924C209.183 23.5796 208.766 23.5777 208.351 23.566Z" fill="#AAE6FF"/>
</svg>
